<?xml version="1.0" encoding="UTF-8"?>
<svg width="391px" height="91px" viewBox="0 0 391 91" version="1.1" xmlns="http://www.w3.org/2000/svg" xmlns:xlink="http://www.w3.org/1999/xlink">
    <!-- Generator: Sketch 41.2 (35397) - http://www.bohemiancoding.com/sketch -->
    <title>Group</title>
    <desc>Created with Sketch.</desc>
    <defs></defs>
    <g id="Page-1" stroke="none" stroke-width="1" fill="none" fill-rule="evenodd">
        <g id="Group">
            <text id="Subtitle" stroke="#55346F" stroke-width="0.4" font-family="TimesNewRomanPSMT, Times New Roman" font-size="26" font-weight="normal" line-spacing="28" letter-spacing="0.325000018" fill="#55346F">
                <tspan x="126" y="84">a frame shop and galler</tspan>
                <tspan x="377.478907" y="84" letter-spacing="0.352083355">y</tspan>
            </text>
            <g id="Galleria-Scola" fill="#000000">
                <path d="M126.6,2.49745087 C125.3,1.19745087 125.9,0.0974508712 128,0.0974508712 C129.1,0.0974508712 129.9,0.597450871 129.7,1.29745087 C129.2,2.69745087 127.5,3.39745087 126.6,2.49745087 Z" id="Shape" transform="translate(127.823343, 1.498725) scale(1, -1) translate(-127.823343, -1.498725) "></path>
                <path d="M146.4,22.2309482 C137.1,17.4309482 129.9,4.53094823 134.4,0.830948227 C136.4,-0.869051773 139.6,0.430948227 141.6,3.93094823 C143.6,7.33094823 144.9,7.63094823 144.9,4.83094823 C144.9,2.33094823 146,2.33094823 149.3,4.93094823 C152.1,7.13094823 152.8,9.13094823 150.4,8.23094823 C149.3,7.73094823 148.9,8.33094823 148.9,10.6309482 C148.9,12.3309482 148.5,13.8309482 148.1,14.0309482 C147.6,14.2309482 146.9,15.5309482 146.6,16.9309482 C146,19.2309482 146.3,19.6309482 149,20.4309482 C152.1,21.3309482 153.1,23.1309482 150.7,23.6309482 C150,23.7309482 148.1,23.1309482 146.4,22.2309482 Z M143.9,15.0309482 C143.9,11.9309482 139.9,3.53094823 138.4,3.43094823 C136.2,3.23094823 136.8,10.0309482 139.3,13.9309482 C142.4,18.5309482 143.9,18.9309482 143.9,15.0309482 Z" id="Shape" transform="translate(142.529227, 11.865474) scale(1, -1) translate(-142.529227, -11.865474) "></path>
                <path d="M84.7,35.6938508 C81.6,33.1938508 81,31.3938508 83.5,32.3938508 C85,32.9938508 85.1,31.7938508 84.4,21.0938508 C83.4,4.89385079 84.7,1.89385079 89.9,7.49385079 C92.4,10.1938508 92,12.0938508 89.3,9.89385079 C87.8,8.69385079 87.7,9.69385079 88.4,23.2938508 C88.8,31.4938508 88.8,37.9938508 88.3,37.9938508 C87.8,37.8938508 86.2,36.8938508 84.7,35.6938508 Z" id="Shape" transform="translate(86.757015, 21.446925) scale(1, -1) translate(-86.757015, -21.446925) "></path>
                <path d="M135.661265,58.6938508 C132.561265,56.1938508 131.961265,54.3938508 134.461265,55.3938508 C135.961265,55.9938508 136.061265,54.7938508 135.361265,44.0938508 C134.361265,27.8938508 135.661265,24.8938508 140.861265,30.4938508 C143.361265,33.1938508 142.961265,35.0938508 140.261265,32.8938508 C138.761265,31.6938508 138.661265,32.6938508 139.361265,46.2938508 C139.761265,54.4938508 139.761265,60.9938508 139.261265,60.9938508 C138.761265,60.8938508 137.161265,59.8938508 135.661265,58.6938508 Z" id="Shape" transform="translate(137.718279, 44.446925) scale(1, -1) translate(-137.718279, -44.446925) "></path>
                <path d="M124.5,27.8631434 C122,23.9631434 121.9,26.8631434 121,27.7631434 C120,28.6631434 119.2,28.3631434 117.4,26.2631434 C114.7,23.0631434 113.9,22.8631434 113.9,24.9631434 C113.9,27.0631434 113.4,26.8631434 110.4,23.9631434 C107.6,21.0631434 107.1,19.2631434 109.5,20.1631434 C110.9,20.6631434 111.1,19.8631434 110.7,13.0631434 C110.4,6.96314337 110.6,5.56314337 111.7,5.96314337 C112.5,6.26314337 113.3,6.46314337 113.5,6.46314337 C113.7,6.46314337 113.9,8.16314337 113.9,10.2631434 C113.9,14.7631434 115.4,20.2631434 117.3,22.7631434 C118.1,23.7631434 120.209291,26.0212852 122,25.6631434 C123.5,25.3631434 125.4,25.6631434 125.4,25.6631434 L125.1,17.5631434 C124.9,13.0631434 125.1,9.46314337 125.6,9.46314337 C126.9,9.56314337 130.9,13.1631434 130.9,14.3631434 C130.9,14.9631434 130.3,15.1631434 129.6,14.9631434 C128.7,14.5631434 128.5,16.2631434 128.7,22.4631434 C129,27.2631434 128.7,30.4631434 128.1,30.4631434 C127.6,30.4631434 125.482748,29.3962307 124.5,27.8631434 Z" id="Shape" transform="translate(119.432422, 18.181572) scale(1, -1) translate(-119.432422, -18.181572) "></path>
                <path d="M74.4,38.0750581 C71.8,35.8750581 71.7,35.0750581 74.2,35.4750581 C74.6,35.5750581 74.8,29.4750581 74.7,21.9750581 C74.4,6.87505806 74.8,5.87505806 79.5,9.97505806 C82.5,12.4750581 82.3,14.9750581 79.3,12.4750581 C77.8,11.2750581 77.7,12.2750581 78.4,25.8750581 C78.8,34.0750581 78.8,40.5750581 78.3,40.5750581 C77.8,40.4750581 76.1,39.3750581 74.4,38.0750581 Z" id="Shape" transform="translate(77.019172, 24.237529) scale(1, -1) translate(-77.019172, -24.237529) "></path>
                <path d="M101.2,33.896292 C100,33.396292 97.6,31.096292 95.9,28.796292 C93.6,25.496292 92.9,23.596292 92.9,19.896292 C92.9,14.096292 94.7,12.096292 98.7,13.496292 C102.1,14.696292 107.2,21.896292 106.3,24.196292 C105.3,26.796292 104.2,26.196292 103.5,22.696292 C102.4,17.196292 97.9,13.896292 96.5,17.496292 C95.2,20.996292 95.9,23.696292 98.2,24.296292 C101.6,25.096292 105.9,29.796292 105.9,32.496292 C105.9,34.996292 104.8,35.296292 101.2,33.896292 Z M102.9,30.396292 C102.9,28.896292 100,26.896292 97.8,26.896292 C97.1,26.896292 97.6,27.996292 98.9,29.396292 C101.6,32.196292 102.9,32.596292 102.9,30.396292 Z" id="Shape" transform="translate(99.652379, 23.898146) scale(1, -1) translate(-99.652379, -23.898146) "></path>
                <path d="M35.7,80.7304326 C30.1,78.7304326 26.0023846,76.6304326 24.0023846,72.1304326 C22.0023846,67.6304326 22.4,65.6304326 23,61.7304326 C23.6,57.8304326 28,55.6304326 22,58.8304326 C18.6,60.1304326 12,60.4304326 8.6,59.2304326 C-2.4,55.6304326 -2.9,42.7304326 7.7,35.5304326 C14.9,30.7304326 27.5,31.7304326 35.4,37.8304326 C37.9,39.7304326 40.1,41.2304326 40.4,41.2304326 C40.6,41.2304326 40.4,40.0304326 39.9,38.6304326 C37.7,32.8304326 42.7,22.9304326 49.5,19.7304326 C55.2,17.0304326 65,17.9304326 71.4,21.7304326 C75.4,24.1304326 77.4,24.6304326 81.4,24.4304326 C90.1,23.9304326 96.9,30.3304326 96.9,39.0304326 C96.9,45.9304326 92.8,48.6304326 86.2,46.1304326 C84,45.3304326 83.2,45.4304326 82.3,46.6304326 C81.7,47.5304326 80.4,48.2304326 79.4,48.2304326 C78,48.2304326 77.9,47.9304326 78.9,46.7304326 C80.4,44.8304326 80,44.3304326 76.8,44.0304326 C74.8,43.7304326 74.4,44.1304326 74.7,46.2304326 C74.9,48.9304326 79.4,53.5304326 81.3,52.9304326 C81.9,52.7304326 82.5,51.6304326 82.7,50.4304326 C83.1,47.7304326 84.7,47.7304326 87.7,50.1304326 C90.2,52.3304326 90.6,53.7304326 88.4,52.8304326 C87.3,52.4304326 86.7,53.1304326 86.2,55.2304326 C85.9,56.9304326 85.5,58.2304326 85.4,58.2304326 C85.3,58.2304326 83.1,57.0304326 80.5,55.6304326 C75.4,52.7304326 72.2,48.9304326 71.3,44.4304326 C70.5,40.5304326 73.1,38.8304326 77.8,40.2304326 C80.6,41.0304326 80.9,40.9304326 80.9,38.8304326 C80.9,35.9304326 78.9,30.2304326 78,30.2304326 C77.6,30.2304326 74.9,33.1304326 72,36.7304326 C65.1,45.2304326 61,47.7304326 53.9,47.6304326 C50.1,47.6304326 47.5,47.0304326 45.4,45.7304326 L42.4,43.7304326 L44.8,47.5304326 C46,49.6304326 47.7,53.6304326 48.5,56.5304326 C50,62.3304326 50.4,72.8304326 49.1,73.6304326 C48.6,73.9304326 46.7,73.7304326 44.8,73.2304326 C42.9,72.7304326 39.4,71.8304326 37,71.2304326 C32.5,70.0304326 32.3,68.7304326 36.6,68.7304326 C40.3,68.7304326 41.8,65.9304326 39.9,62.5304326 C37,57.3304326 29.3,56.8304326 27.1,61.7304326 C24.3,67.9304326 26.4,73.5304326 32.6,76.6304326 C36.7,78.6304326 37.9,78.6304326 39.5,76.5304326 C40.7,74.9304326 40.8,75.1304326 40.9,78.5304326 C40.9,82.6304326 40.9,82.6304326 35.7,80.7304326 Z M45.9,64.5304326 C45.9,60.7304326 45.4,55.9304326 44.8,53.7304326 C41.8,42.9304326 32.1,35.8304326 20.5,35.9304326 C12,36.0304326 6.5,39.1304326 2.9,46.0304326 C0.2,51.4304326 4.7,57.2304326 11.5,57.2304326 C17.1,57.2304326 19.3,56.3304326 28.5,50.2304326 C35.8,45.4304326 36.3,45.2304326 38.5,46.7304326 C41.4,48.6304326 41.7,50.6304326 39,49.7304326 C37.7,49.3304326 35.5,50.1304326 32.8,51.9304326 L28.6,54.7304326 L32,55.3304326 C39.4,56.5304326 44.4,61.8304326 43.7,67.7304326 C43.4,70.1304326 43.7,71.2304326 44.6,71.2304326 C45.5,71.2304326 45.9,69.3304326 45.9,64.5304326 Z M60.5,42.3304326 C62.7,40.8304326 66.8,36.5304326 69.7,32.9304326 L74.8,26.3304326 L71.2,24.1304326 C68.9,22.6304326 65.4,21.6304326 61.8,21.4304326 C51.6,20.6304326 43.7,26.4304326 42.2,35.6304326 C41.7,38.6304326 42.1,39.6304326 44.7,42.2304326 C48.9,46.3304326 54.9,46.4304326 60.5,42.3304326 Z M92.3,41.6304326 C94.9,39.1304326 94.3,33.7304326 91.2,30.2304326 C88.2,27.0304326 83.3,25.5304326 80.9,27.1304326 C79.7,28.0304326 79.8,28.7304326 81.7,32.7304326 C82.9,35.2304326 83.9,38.3304326 83.9,39.7304326 C83.9,41.9304326 84.9,42.5304326 89.6,43.1304326 C90.2,43.1304326 91.5,42.5304326 92.3,41.6304326 Z" id="Shape" transform="translate(48.470748, 50.065216) scale(1, -1) translate(-48.470748, -50.065216) "></path>
                <path d="M66.1,44.6043609 C60.8,41.8043609 55,35.4043609 53.8,31.2043609 C51.7,23.2043609 55.2,20.5043609 60.6,25.9043609 C64.7,30.0043609 64.9,30.1043609 64.9,27.4043609 C64.9,24.9043609 65.3,24.9043609 68.9,27.6043609 C72.1,29.9043609 73,32.0043609 70.4,31.0043609 C69.3,30.6043609 68.9,31.2043609 68.9,33.3043609 C68.9,34.9043609 68.5,36.4043609 68.1,36.6043609 C67.6,36.8043609 66.9,38.1043609 66.5,39.6043609 C66,42.0043609 66.2,42.4043609 68.9,43.1043609 C72,43.9043609 73,45.7043609 70.7,46.2043609 C70,46.3043609 67.9,45.6043609 66.1,44.6043609 Z M63.9,37.9043609 C63.9,33.8043609 60,26.4043609 57.7,26.4043609 C56.5,26.4043609 56.7,32.2043609 58,34.7043609 C59.5,37.6043609 62,40.4043609 63.1,40.4043609 C63.5,40.4043609 63.9,39.3043609 63.9,37.9043609 Z" id="Shape" transform="translate(62.570497, 34.652180) scale(1, -1) translate(-62.570497, -34.652180) "></path>
                <path d="M144.4,35.3113965 C145.562351,33.7339208 148.1,34.3113965 151.5,38.0113965 C154.5,41.3113965 154.9,41.5113965 154.9,39.5113965 C154.9,36.9113965 156.1,36.7113965 159.4,38.9113965 C162.1,40.7113965 162.8,42.9113965 160.4,41.9113965 C159.3,41.5113965 158.9,42.1113965 158.9,44.2113965 C158.9,45.8113965 158.5,47.3113965 158,47.5113965 C157.5,47.7113965 156.9,49.1113965 156.7,50.8113965 C156.4,53.4113965 156.8,53.8113965 159.7,54.7113965 C162.9,55.6113965 163.6,57.9113965 160.6,57.7113965 C154.6,57.2113965 143.5,45.8113965 143.5,40.2113965 C143.5,40.2113965 143,37.2113965 144.4,35.3113965 Z M153.7,47.9113965 C153.1,43.3113965 149.4,36.9113965 147.8,37.8113965 C146.6,38.6113965 146.7,43.0113965 148,45.6113965 C149.2,47.9113965 152.9,52.3113965 153.7,52.3113965 L153.7,47.9113965 Z" id="Shape" transform="translate(152.963294, 46.105698) scale(1, -1) translate(-152.963294, -46.105698) "></path>
                <path d="M121.5,62.7879559 C116,58.0879559 113.2,45.9879559 118.9,44.0879559 C121.5,43.1879559 125.7,46.0879559 128.4,50.5879559 C131.3,55.6879559 131.6,58.8879559 129.2,61.4879559 C128.3,62.5879559 124.9,62.7879559 125.5,62.7879559 C126.2,62.7879559 129.9,63.7879559 129.9,64.2879559 C129.9,66.0879559 124.8,65.2879559 121.5,62.7879559 Z M122.5,58.0879559 C122.2,56.9879559 121.9,55.1879559 122.5,55.1879559 C123.1,55.1879559 123.536005,59.0879559 124.5,59.6879559 C126,61.6879559 126.9,59.6879559 126.9,56.2879559 C126.9,49.5879559 121,44.0879559 119.4,49.1879559 C118.7,51.3879559 119.7,56.1879559 121.2,58.0879559 C122.5,59.7879559 123.1,60.3879559 122.5,58.0879559 Z" id="Shape" transform="translate(123.287057, 54.593978) scale(1, -1) translate(-123.287057, -54.593978) "></path>
                <path d="M107.1,68.2513409 C101,65.5513409 98.9,57.8513409 98.9,54.5513409 C98.9,51.3513409 101.3,48.2513409 103.9,48.2513409 C108.5,48.2513409 116.3,58.6513409 113.1,60.6513409 C112.5,60.9513409 111.8,59.9513409 111.4,58.3513409 C111.1,56.7513409 109.7,54.4513409 108.4,53.2513409 C106.4,51.3513409 105.7,51.1513409 104.4,52.2513409 C100.8,55.2513409 101.5,65.5513409 109.3,66.2513409 C109.599426,66.2782124 109.9,65.5513409 109.9,64.7513409 C109.9,62.4513409 111.6,62.9513409 112.3,65.5513409 C113.7,70.8513409 112.698267,70.7292622 107.1,68.2513409 Z" id="Shape" transform="translate(106.374763, 59.075670) scale(1, -1) translate(-106.374763, -59.075670) "></path>
            </g>
        </g>
    </g>
</svg>